<?xml version="1.0" encoding="UTF-8" standalone="no"?>
<!DOCTYPE svg PUBLIC "-//W3C//DTD SVG 1.1//EN"
 "http://www.w3.org/Graphics/SVG/1.1/DTD/svg11.dtd">
<!-- Generated by graphviz version 2.47.0 (20210316.0004)
 -->
<!-- Title: dependencies Pages: 1 -->
<svg width="504pt" height="287pt"
 viewBox="0.00 0.00 504.00 287.00" xmlns="http://www.w3.org/2000/svg" xmlns:xlink="http://www.w3.org/1999/xlink">
<g id="graph0" class="graph" transform="scale(1 1) rotate(0) translate(4 283)">
<title>dependencies</title>
<polygon fill="white" stroke="transparent" points="-4,4 -4,-283 500,-283 500,4 -4,4"/>
<text text-anchor="start" x="227.01" y="-42.4" font-family="Times-12" font-weight="bold" font-size="14.00">Legend</text>
<polygon fill="#ffffb3" stroke="transparent" points="14,-10 14,-30 34,-30 34,-10 14,-10"/>
<text text-anchor="start" x="37.63" y="-15.4" font-family="Times-12" font-size="14.00"> &#160;Declarations</text>
<polygon fill="#8dd3c7" stroke="transparent" points="127,-10 127,-30 147,-30 147,-10 127,-10"/>
<text text-anchor="start" x="150.73" y="-15.4" font-family="Times-12" font-size="14.00"> &#160;Module</text>
<polygon fill="#80b1d3" stroke="transparent" points="213,-10 213,-30 233,-30 233,-10 213,-10"/>
<text text-anchor="start" x="236.78" y="-15.4" font-family="Times-12" font-size="14.00"> &#160;Bootstrap</text>
<polygon fill="#fdb462" stroke="transparent" points="310,-10 310,-30 330,-30 330,-10 310,-10"/>
<text text-anchor="start" x="333.67" y="-15.4" font-family="Times-12" font-size="14.00"> &#160;Providers</text>
<polygon fill="#fb8072" stroke="transparent" points="406,-10 406,-30 426,-30 426,-10 406,-10"/>
<text text-anchor="start" x="429.73" y="-15.4" font-family="Times-12" font-size="14.00"> &#160;Exports</text>
<g id="clust1" class="cluster">
<title>cluster_AppModule</title>
<polygon fill="none" stroke="black" stroke-dasharray="1,5" points="46,-146 46,-271 415,-271 415,-146 46,-146"/>
</g>
<g id="clust3" class="cluster">
<title>cluster_AppModule_imports</title>
<polygon fill="none" stroke="black" points="192,-154 192,-206 407,-206 407,-154 192,-154"/>
</g>
<g id="clust6" class="cluster">
<title>cluster_AppModule_providers</title>
<polygon fill="none" stroke="black" points="54,-154 54,-206 184,-206 184,-154 54,-154"/>
</g>
<g id="clust7" class="cluster">
<title>cluster_PostsModule</title>
<polygon fill="none" stroke="black" stroke-dasharray="1,5" points="148,-70 148,-138 294,-138 294,-70 148,-70"/>
</g>
<g id="clust12" class="cluster">
<title>cluster_PostsModule_providers</title>
<polygon fill="none" stroke="black" points="156,-78 156,-130 286,-130 286,-78 156,-78"/>
</g>
<g id="clust13" class="cluster">
<title>cluster_UsersModule</title>
<polygon fill="none" stroke="black" stroke-dasharray="1,5" points="302,-70 302,-138 450,-138 450,-70 302,-70"/>
</g>
<g id="clust18" class="cluster">
<title>cluster_UsersModule_providers</title>
<polygon fill="none" stroke="black" points="310,-78 310,-130 442,-130 442,-78 310,-78"/>
</g>
<!-- PostsModule -->
<g id="node1" class="node">
<title>PostsModule</title>
<polygon fill="#8dd3c7" stroke="black" points="289.61,-198 286.61,-202 265.61,-202 262.61,-198 200.39,-198 200.39,-162 289.61,-162 289.61,-198"/>
<text text-anchor="middle" x="245" y="-175.8" font-family="Times,serif" font-size="14.00">PostsModule</text>
</g>
<!-- AppModule -->
<g id="node3" class="node">
<title>AppModule</title>
<polygon fill="#8dd3c7" stroke="black" points="286.66,-263 283.66,-267 262.66,-267 259.66,-263 203.34,-263 203.34,-227 286.66,-227 286.66,-263"/>
<text text-anchor="middle" x="245" y="-240.8" font-family="Times,serif" font-size="14.00">AppModule</text>
</g>
<!-- PostsModule&#45;&gt;AppModule -->
<g id="edge1" class="edge">
<title>PostsModule&#45;&gt;AppModule</title>
<path fill="none" stroke="black" d="M245,-198.11C245,-198.11 245,-216.99 245,-216.99"/>
<polygon fill="black" stroke="black" points="241.5,-216.99 245,-226.99 248.5,-216.99 241.5,-216.99"/>
</g>
<!-- UsersModule -->
<g id="node2" class="node">
<title>UsersModule</title>
<polygon fill="#8dd3c7" stroke="black" points="398.92,-198 395.92,-202 374.92,-202 371.92,-198 307.08,-198 307.08,-162 398.92,-162 398.92,-198"/>
<text text-anchor="middle" x="353" y="-175.8" font-family="Times,serif" font-size="14.00">UsersModule</text>
</g>
<!-- UsersModule&#45;&gt;AppModule -->
<g id="edge2" class="edge">
<title>UsersModule&#45;&gt;AppModule</title>
<path fill="none" stroke="black" d="M353,-198.11C353,-217.34 353,-245 353,-245 353,-245 296.76,-245 296.76,-245"/>
<polygon fill="black" stroke="black" points="296.76,-241.5 286.76,-245 296.76,-248.5 296.76,-241.5"/>
</g>
<!-- AppService -->
<g id="node4" class="node">
<title>AppService</title>
<ellipse fill="#fdb462" stroke="black" cx="119" cy="-180" rx="56.74" ry="18"/>
<text text-anchor="middle" x="119" y="-175.8" font-family="Times,serif" font-size="14.00">AppService</text>
</g>
<!-- AppService&#45;&gt;AppModule -->
<g id="edge3" class="edge">
<title>AppService&#45;&gt;AppModule</title>
<path fill="none" stroke="black" d="M119,-198.11C119,-217.34 119,-245 119,-245 119,-245 193.04,-245 193.04,-245"/>
<polygon fill="black" stroke="black" points="193.04,-248.5 203.04,-245 193.04,-241.5 193.04,-248.5"/>
</g>
<!-- PostService -->
<g id="node5" class="node">
<title>PostService</title>
<ellipse fill="#fdb462" stroke="black" cx="221" cy="-104" rx="56.76" ry="18"/>
<text text-anchor="middle" x="221" y="-99.8" font-family="Times,serif" font-size="14.00">PostService</text>
</g>
<!-- PostService&#45;&gt;PostsModule -->
<g id="edge4" class="edge">
<title>PostService&#45;&gt;PostsModule</title>
<path fill="none" stroke="black" d="M239.04,-121.25C239.04,-121.25 239.04,-151.76 239.04,-151.76"/>
<polygon fill="black" stroke="black" points="235.54,-151.76 239.04,-161.76 242.54,-151.76 235.54,-151.76"/>
</g>
<!-- UserService -->
<g id="node6" class="node">
<title>UserService</title>
<ellipse fill="#fdb462" stroke="black" cx="376" cy="-104" rx="58.44" ry="18"/>
<text text-anchor="middle" x="376" y="-99.8" font-family="Times,serif" font-size="14.00">UserService</text>
</g>
<!-- UserService&#45;&gt;UsersModule -->
<g id="edge5" class="edge">
<title>UserService&#45;&gt;UsersModule</title>
<path fill="none" stroke="black" d="M358.25,-121.25C358.25,-121.25 358.25,-151.76 358.25,-151.76"/>
<polygon fill="black" stroke="black" points="354.75,-151.76 358.25,-161.76 361.75,-151.76 354.75,-151.76"/>
</g>
</g>
</svg>
